PathFileType	4	(X/Y/Z)	two_link_pedal_004.trc
DataRate	CameraRate	NumFrames	NumMarkers	Units	OrigDataRate	OrigDataStartFrame	OrigNumFrames
100	100	6	2	m	100	1	7	
Frame#	Time	Link2_Marker_1			Link1_Marker_1		
		X1	Y1	Z1	X2	Y2	Z2

16	0.149000000	0.294939201	0.293670147	0.000000000	0.050000000	0.250000000	0.000000000
17	0.159000000	0.310119883	0.294911295	0.000000000	0.050000000	0.250000000	0.000000000
18	0.169000000	0.325300565	0.296152442	0.000000000	0.050000000	0.250000000	0.000000000
19	0.179000000	0.340481247	0.297393590	0.000000000	0.050000000	0.250000000	0.000000000
20	0.189000000	0.355661930	0.298634738	0.000000000	0.050000000	0.250000000	0.000000000
21	0.200000000	0.372360680	0.300000000	0.000000000	0.050000000	0.250000000	0.000000000
